<svg xmlns="http://www.w3.org/2000/svg" xmlns:xlink="http://www.w3.org/1999/xlink" contentStyleType="text/css" data-diagram-type="CLASS" height="1286px" preserveAspectRatio="none" style="width:1890px;height:1286px;background:#FFFFFF;" version="1.1" viewBox="0 0 1890 1286" width="1890px" zoomAndPan="magnify"><defs/><g><!--cluster data--><g class="cluster" data-entity="data" data-source-line="6" data-uid="ent0002" id="cluster_data"><rect fill="#FFFFFF" height="1268.59" rx="2.5" ry="2.5" style="stroke:#000000;stroke-width:1;" width="1155" x="356.91" y="12"/><text fill="#000000" font-family="Verdana" font-size="14" font-weight="bold" lengthAdjust="spacing" textLength="34.8701" x="916.9749" y="28.0752">data</text></g><!--class Attribute--><g class="entity" data-entity="Attribute" data-source-line="8" data-uid="ent0003" id="entity_Attribute"><rect fill="#FFFFFF" height="146.0879" rx="2.5" ry="2.5" style="stroke:#000000;stroke-width:1;" width="268.5801" x="824.62" y="929.44"/><ellipse cx="930.8639" cy="943.44" fill="#FFFFFF" rx="9" ry="9" style="stroke:#000000;stroke-width:1;"/><path d="M930.7272,938.7881 L929.5734,943.8599 L931.8893,943.8599 Z M929.233,936.5469 L932.2296,936.5469 L935.5748,948.94 L933.1261,948.94 L932.3624,945.877 L929.0836,945.877 L928.3366,948.94 L925.8878,948.94 Z " fill="#000000"/><text fill="#000000" font-family="Verdana" font-size="11" font-style="italic" lengthAdjust="spacing" textLength="48.5923" x="948.3639" y="947.8148">Attribute</text><line style="stroke:#000000;stroke-width:1;" x1="825.62" x2="1092.2001" y1="957.44" y2="957.44"/><text fill="#000000" font-family="Verdana" font-size="14" lengthAdjust="spacing" textLength="99.3467" x="830.62" y="975.5152">-name: String</text><text fill="#000000" font-family="Verdana" font-size="14" lengthAdjust="spacing" textLength="73.9033" x="830.62" y="992.5298">-index: int</text><line style="stroke:#000000;stroke-width:1;" x1="825.62" x2="1092.2001" y1="999.4693" y2="999.4693"/><text fill="#000000" font-family="Verdana" font-size="14" lengthAdjust="spacing" textLength="256.5801" x="830.62" y="1017.5445">+Attribute(name: String, index: int)</text><text fill="#000000" font-family="Verdana" font-size="14" lengthAdjust="spacing" textLength="141.3535" x="830.62" y="1034.5591">+getName(): String</text><text fill="#000000" font-family="Verdana" font-size="14" lengthAdjust="spacing" textLength="116.3477" x="830.62" y="1051.5738">+getIndex(): int</text><text fill="#000000" font-family="Verdana" font-size="14" lengthAdjust="spacing" textLength="134.4355" x="830.62" y="1068.5884">+toString(): String</text></g><!--class DiscreteAttribute--><g class="entity" data-entity="DiscreteAttribute" data-source-line="18" data-uid="ent0004" id="entity_DiscreteAttribute"><rect fill="#FFFFFF" height="112.0586" rx="2.5" ry="2.5" style="stroke:#000000;stroke-width:1;" width="310.4639" x="980.68" y="1152.53"/><ellipse cx="1085.3153" cy="1166.53" fill="#FFFFFF" rx="9" ry="9" style="stroke:#000000;stroke-width:1;"/><path d="M1087.7884,1172.6731 Q1087.2073,1172.9719 1086.5682,1173.1213 Q1085.929,1173.2707 1085.2235,1173.2707 Q1082.7166,1173.2707 1081.3968,1171.6189 Q1080.077,1169.967 1080.077,1166.8459 Q1080.077,1163.7165 1081.3968,1162.0647 Q1082.7166,1160.4128 1085.2235,1160.4128 Q1085.929,1160.4128 1086.5765,1160.5622 Q1087.2239,1160.7116 1087.7884,1161.0105 L1087.7884,1163.7331 Q1087.1575,1163.1521 1086.564,1162.8823 Q1085.9705,1162.6125 1085.3397,1162.6125 Q1083.9949,1162.6125 1083.3101,1163.6792 Q1082.6253,1164.7458 1082.6253,1166.8459 Q1082.6253,1168.9377 1083.3101,1170.0044 Q1083.9949,1171.071 1085.3397,1171.071 Q1085.9705,1171.071 1086.564,1170.8012 Q1087.1575,1170.5315 1087.7884,1169.9504 Z " fill="#000000"/><text fill="#000000" font-family="Verdana" font-size="11" lengthAdjust="spacing" textLength="93.6934" x="1102.8153" y="1170.9048">DiscreteAttribute</text><line style="stroke:#000000;stroke-width:1;" x1="981.68" x2="1290.1439" y1="1180.53" y2="1180.53"/><text fill="#000000" font-family="Verdana" font-size="14" lengthAdjust="spacing" textLength="151.4912" x="986.68" y="1198.6052">-values: Set&lt;String&gt;</text><line style="stroke:#000000;stroke-width:1;" x1="981.68" x2="1290.1439" y1="1205.5446" y2="1205.5446"/><text fill="#000000" font-family="Verdana" font-size="14" lengthAdjust="spacing" textLength="298.4639" x="986.68" y="1223.6198">+DiscreteAttribute(name, index, values[])</text><text fill="#000000" font-family="Verdana" font-size="14" lengthAdjust="spacing" textLength="247.4404" x="986.68" y="1240.6345">+getNumberOfDistinctValues(): int</text><text fill="#000000" font-family="Verdana" font-size="14" lengthAdjust="spacing" textLength="207.04" x="986.68" y="1257.6491">+iterator(): Iterator&lt;String&gt;</text></g><!--class ContinuousAttribute--><g class="entity" data-entity="ContinuousAttribute" data-source-line="26" data-uid="ent0005" id="entity_ContinuousAttribute"><rect fill="#FFFFFF" height="112.0586" rx="2.5" ry="2.5" style="stroke:#000000;stroke-width:1;" width="340.8359" x="497.49" y="1152.53"/><ellipse cx="608.876" cy="1166.53" fill="#FFFFFF" rx="9" ry="9" style="stroke:#000000;stroke-width:1;"/><path d="M611.3491,1172.6731 Q610.7681,1172.9719 610.1289,1173.1213 Q609.4898,1173.2707 608.7842,1173.2707 Q606.2774,1173.2707 604.9575,1171.6189 Q603.6377,1169.967 603.6377,1166.8459 Q603.6377,1163.7165 604.9575,1162.0647 Q606.2774,1160.4128 608.7842,1160.4128 Q609.4898,1160.4128 610.1372,1160.5622 Q610.7847,1160.7116 611.3491,1161.0105 L611.3491,1163.7331 Q610.7183,1163.1521 610.1248,1162.8823 Q609.5313,1162.6125 608.9004,1162.6125 Q607.5557,1162.6125 606.8709,1163.6792 Q606.186,1164.7458 606.186,1166.8459 Q606.186,1168.9377 606.8709,1170.0044 Q607.5557,1171.071 608.9004,1171.071 Q609.5313,1171.071 610.1248,1170.8012 Q610.7183,1170.5315 611.3491,1169.9504 Z " fill="#000000"/><text fill="#000000" font-family="Verdana" font-size="11" lengthAdjust="spacing" textLength="110.564" x="626.376" y="1170.9048">ContinuousAttribute</text><line style="stroke:#000000;stroke-width:1;" x1="498.49" x2="837.3259" y1="1180.53" y2="1180.53"/><text fill="#000000" font-family="Verdana" font-size="14" lengthAdjust="spacing" textLength="94.9307" x="503.49" y="1198.6052">-max: double</text><text fill="#000000" font-family="Verdana" font-size="14" lengthAdjust="spacing" textLength="90.9385" x="503.49" y="1215.6198">-min: double</text><line style="stroke:#000000;stroke-width:1;" x1="498.49" x2="837.3259" y1="1222.5593" y2="1222.5593"/><text fill="#000000" font-family="Verdana" font-size="14" lengthAdjust="spacing" textLength="328.8359" x="503.49" y="1240.6345">+ContinuousAttribute(name, index, min, max)</text><text fill="#000000" font-family="Verdana" font-size="14" lengthAdjust="spacing" textLength="256.7578" x="503.49" y="1257.6491">+getScaledValue(v: double): double</text></g><!--class Item--><g class="entity" data-entity="Item" data-source-line="35" data-uid="ent0006" id="entity_Item"><rect fill="#FFFFFF" height="163.1025" rx="2.5" ry="2.5" style="stroke:#000000;stroke-width:1;" width="308.1123" x="1091.85" y="689.34"/><ellipse cx="1229.0453" cy="703.34" fill="#FFFFFF" rx="9" ry="9" style="stroke:#000000;stroke-width:1;"/><path d="M1228.9086,698.6881 L1227.7548,703.7599 L1230.0707,703.7599 Z M1227.4145,696.4469 L1230.411,696.4469 L1233.7563,708.84 L1231.3075,708.84 L1230.5438,705.777 L1227.265,705.777 L1226.518,708.84 L1224.0692,708.84 Z " fill="#000000"/><text fill="#000000" font-family="Verdana" font-size="11" font-style="italic" lengthAdjust="spacing" textLength="26.2217" x="1246.5453" y="707.7148">Item</text><line style="stroke:#000000;stroke-width:1;" x1="1092.85" x2="1398.9623" y1="717.34" y2="717.34"/><text fill="#000000" font-family="Verdana" font-size="14" lengthAdjust="spacing" textLength="140.1914" x="1097.85" y="735.4152">-attribute: Attribute</text><text fill="#000000" font-family="Verdana" font-size="14" lengthAdjust="spacing" textLength="101.083" x="1097.85" y="752.4298">-value: Object</text><line style="stroke:#000000;stroke-width:1;" x1="1092.85" x2="1398.9623" y1="759.3693" y2="759.3693"/><text fill="#000000" font-family="Verdana" font-size="14" lengthAdjust="spacing" textLength="296.1123" x="1097.85" y="777.4445">+Item(attribute: Attribute, value: Object)</text><text fill="#000000" font-family="Verdana" font-size="14" lengthAdjust="spacing" textLength="181.7471" x="1097.85" y="794.4591">+getAttribute(): Attribute</text><text fill="#000000" font-family="Verdana" font-size="14" lengthAdjust="spacing" textLength="142.7617" x="1097.85" y="811.4738">+getValue(): Object</text><text fill="#000000" font-family="Verdana" font-size="14" lengthAdjust="spacing" textLength="134.4355" x="1097.85" y="828.4884">+toString(): String</text><text fill="#000000" font-family="Verdana" font-size="14" font-style="italic" lengthAdjust="spacing" textLength="206.1104" x="1097.85" y="845.5031">+distance(a: Object): double</text></g><!--class DiscreteItem--><g class="entity" data-entity="DiscreteItem" data-source-line="46" data-uid="ent0007" id="entity_DiscreteItem"><rect fill="#FFFFFF" height="78.0293" rx="2.5" ry="2.5" style="stroke:#000000;stroke-width:1;" width="367.1816" x="1128.32" y="963.47"/><ellipse cx="1272.5075" cy="977.47" fill="#FFFFFF" rx="9" ry="9" style="stroke:#000000;stroke-width:1;"/><path d="M1274.9806,983.6131 Q1274.3996,983.9119 1273.7604,984.0613 Q1273.1213,984.2107 1272.4157,984.2107 Q1269.9089,984.2107 1268.589,982.5589 Q1267.2692,980.907 1267.2692,977.7859 Q1267.2692,974.6565 1268.589,973.0047 Q1269.9089,971.3528 1272.4157,971.3528 Q1273.1213,971.3528 1273.7687,971.5022 Q1274.4162,971.6516 1274.9806,971.9505 L1274.9806,974.6731 Q1274.3498,974.0921 1273.7563,973.8223 Q1273.1628,973.5525 1272.5319,973.5525 Q1271.1872,973.5525 1270.5024,974.6192 Q1269.8176,975.6858 1269.8176,977.7859 Q1269.8176,979.8777 1270.5024,980.9444 Q1271.1872,982.011 1272.5319,982.011 Q1273.1628,982.011 1273.7563,981.7412 Q1274.3498,981.4715 1274.9806,980.8904 Z " fill="#000000"/><text fill="#000000" font-family="Verdana" font-size="11" lengthAdjust="spacing" textLength="71.3066" x="1290.0075" y="981.8448">DiscreteItem</text><line style="stroke:#000000;stroke-width:1;" x1="1129.32" x2="1494.5016" y1="991.47" y2="991.47"/><line style="stroke:#000000;stroke-width:1;" x1="1129.32" x2="1494.5016" y1="999.47" y2="999.47"/><text fill="#000000" font-family="Verdana" font-size="14" lengthAdjust="spacing" textLength="355.1816" x="1134.32" y="1017.5452">+DiscreteItem(attr: DiscreteAttribute, val: String)</text><text fill="#000000" font-family="Verdana" font-size="14" lengthAdjust="spacing" textLength="206.1104" x="1134.32" y="1034.5598">+distance(a: Object): double</text></g><!--class ContinuousItem--><g class="entity" data-entity="ContinuousItem" data-source-line="51" data-uid="ent0008" id="entity_ContinuousItem"><rect fill="#FFFFFF" height="78.0293" rx="2.5" ry="2.5" style="stroke:#000000;stroke-width:1;" width="416.6875" x="372.57" y="963.47"/><ellipse cx="533.0751" cy="977.47" fill="#FFFFFF" rx="9" ry="9" style="stroke:#000000;stroke-width:1;"/><path d="M535.5483,983.6131 Q534.9672,983.9119 534.3281,984.0613 Q533.6889,984.2107 532.9833,984.2107 Q530.4765,984.2107 529.1567,982.5589 Q527.8368,980.907 527.8368,977.7859 Q527.8368,974.6565 529.1567,973.0047 Q530.4765,971.3528 532.9833,971.3528 Q533.6889,971.3528 534.3364,971.5022 Q534.9838,971.6516 535.5483,971.9505 L535.5483,974.6731 Q534.9174,974.0921 534.3239,973.8223 Q533.7304,973.5525 533.0995,973.5525 Q531.7548,973.5525 531.07,974.6192 Q530.3852,975.6858 530.3852,977.7859 Q530.3852,979.8777 531.07,980.9444 Q531.7548,982.011 533.0995,982.011 Q533.7304,982.011 534.3239,981.7412 Q534.9174,981.4715 535.5483,980.8904 Z " fill="#000000"/><text fill="#000000" font-family="Verdana" font-size="11" lengthAdjust="spacing" textLength="88.1772" x="550.5751" y="981.8448">ContinuousItem</text><line style="stroke:#000000;stroke-width:1;" x1="373.57" x2="788.2575" y1="991.47" y2="991.47"/><line style="stroke:#000000;stroke-width:1;" x1="373.57" x2="788.2575" y1="999.47" y2="999.47"/><text fill="#000000" font-family="Verdana" font-size="14" lengthAdjust="spacing" textLength="404.6875" x="378.57" y="1017.5452">+ContinuousItem(attr: ContinuousAttribute, val: Double)</text><text fill="#000000" font-family="Verdana" font-size="14" lengthAdjust="spacing" textLength="206.1104" x="378.57" y="1034.5598">+distance(a: Object): double</text></g><!--class Tuple--><g class="entity" data-entity="Tuple" data-source-line="57" data-uid="ent0009" id="entity_Tuple"><rect fill="#FFFFFF" height="163.1025" rx="2.5" ry="2.5" style="stroke:#000000;stroke-width:1;" width="472.2295" x="1009.8" y="449.24"/><ellipse cx="1227.0827" cy="463.24" fill="#FFFFFF" rx="9" ry="9" style="stroke:#000000;stroke-width:1;"/><path d="M1229.5559,469.3831 Q1228.9748,469.6819 1228.3356,469.8313 Q1227.6965,469.9807 1226.9909,469.9807 Q1224.4841,469.9807 1223.1643,468.3289 Q1221.8444,466.677 1221.8444,463.5559 Q1221.8444,460.4265 1223.1643,458.7747 Q1224.4841,457.1228 1226.9909,457.1228 Q1227.6965,457.1228 1228.3439,457.2722 Q1228.9914,457.4216 1229.5559,457.7205 L1229.5559,460.4431 Q1228.925,459.8621 1228.3315,459.5923 Q1227.738,459.3225 1227.1071,459.3225 Q1225.7624,459.3225 1225.0776,460.3892 Q1224.3928,461.4558 1224.3928,463.5559 Q1224.3928,465.6477 1225.0776,466.7144 Q1225.7624,467.781 1227.1071,467.781 Q1227.738,467.781 1228.3315,467.5112 Q1228.925,467.2415 1229.5559,466.6604 Z " fill="#000000"/><text fill="#000000" font-family="Verdana" font-size="11" lengthAdjust="spacing" textLength="30.1641" x="1244.5827" y="467.6148">Tuple</text><line style="stroke:#000000;stroke-width:1;" x1="1010.8" x2="1481.0295" y1="477.24" y2="477.24"/><text fill="#000000" font-family="Verdana" font-size="14" lengthAdjust="spacing" textLength="98.998" x="1015.8" y="495.3152">-tuple: Item[]</text><line style="stroke:#000000;stroke-width:1;" x1="1010.8" x2="1481.0295" y1="502.2546" y2="502.2546"/><text fill="#000000" font-family="Verdana" font-size="14" lengthAdjust="spacing" textLength="118.8906" x="1015.8" y="520.3298">+Tuple(size: int)</text><text fill="#000000" font-family="Verdana" font-size="14" lengthAdjust="spacing" textLength="124.3389" x="1015.8" y="537.3445">+getLength(): int</text><text fill="#000000" font-family="Verdana" font-size="14" lengthAdjust="spacing" textLength="124.7354" x="1015.8" y="554.3591">+get(i: int): Item</text><text fill="#000000" font-family="Verdana" font-size="14" lengthAdjust="spacing" textLength="185.9443" x="1015.8" y="571.3738">+add(c: Item, i: int): void</text><text fill="#000000" font-family="Verdana" font-size="14" lengthAdjust="spacing" textLength="237.0635" x="1015.8" y="588.3884">+getDistance(obj: Tuple): double</text><text fill="#000000" font-family="Verdana" font-size="14" lengthAdjust="spacing" textLength="460.2295" x="1015.8" y="605.4031">+avgDistance(data: Data, clusteredData: Set&lt;Integer&gt;): double</text></g><!--class Data--><g class="entity" data-entity="Data" data-source-line="69" data-uid="ent0010" id="entity_Data"><rect fill="#FFFFFF" height="324.2344" rx="2.5" ry="2.5" style="stroke:#000000;stroke-width:1;" width="424.2207" x="618.8" y="48"/><ellipse cx="814.1489" cy="62" fill="#FFFFFF" rx="9" ry="9" style="stroke:#000000;stroke-width:1;"/><path d="M816.622,68.1431 Q816.041,68.4419 815.4018,68.5913 Q814.7626,68.7407 814.0571,68.7407 Q811.5502,68.7407 810.2304,67.0889 Q808.9106,65.437 808.9106,62.3159 Q808.9106,59.1865 810.2304,57.5347 Q811.5502,55.8828 814.0571,55.8828 Q814.7626,55.8828 815.4101,56.0322 Q816.0576,56.1816 816.622,56.4805 L816.622,59.2031 Q815.9912,58.6221 815.3977,58.3523 Q814.8042,58.0825 814.1733,58.0825 Q812.8286,58.0825 812.1438,59.1492 Q811.4589,60.2158 811.4589,62.3159 Q811.4589,64.4077 812.1438,65.4744 Q812.8286,66.541 814.1733,66.541 Q814.8042,66.541 815.3977,66.2712 Q815.9912,66.0015 816.622,65.4204 Z " fill="#000000"/><text fill="#000000" font-family="Verdana" font-size="11" lengthAdjust="spacing" textLength="26.0229" x="831.6489" y="66.3748">Data</text><line style="stroke:#000000;stroke-width:1;" x1="619.8" x2="1042.0207" y1="76" y2="76"/><text fill="#000000" font-family="Verdana" font-size="14" lengthAdjust="spacing" textLength="156.1191" x="624.8" y="94.0752">-data: List&lt;Example&gt;</text><text fill="#000000" font-family="Verdana" font-size="14" lengthAdjust="spacing" textLength="173.5303" x="624.8" y="111.0898">-numberOfExamples: int</text><text fill="#000000" font-family="Verdana" font-size="14" lengthAdjust="spacing" textLength="233.4199" x="624.8" y="128.1045">-explanatorySet: List&lt;Attribute&gt;</text><line style="stroke:#000000;stroke-width:1;" x1="619.8" x2="1042.0207" y1="135.0439" y2="135.0439"/><text fill="#000000" font-family="Verdana" font-size="14" lengthAdjust="spacing" textLength="57.292" x="624.8" y="153.1191">+Data()</text><text fill="#000000" font-family="Verdana" font-size="14" lengthAdjust="spacing" textLength="197.2236" x="624.8" y="170.1338">+Data(csvFilename: String)</text><text fill="#000000" font-family="Verdana" font-size="14" lengthAdjust="spacing" textLength="292.0586" x="624.8" y="187.1484">+Data(db: DbAccess, tableName: String)</text><text fill="#000000" font-family="Verdana" font-size="14" lengthAdjust="spacing" textLength="362.0791" x="624.8" y="204.1631">+Data(tableName: String, fromDatabase: boolean)</text><line style="stroke:#000000;stroke-width:1;" x1="619.8" x2="1042.0207" y1="211.1025" y2="211.1025"/><text fill="#000000" font-family="Verdana" font-size="14" lengthAdjust="spacing" textLength="215.5371" x="624.8" y="229.1777">+getNumberOfExamples(): int</text><text fill="#000000" font-family="Verdana" font-size="14" lengthAdjust="spacing" textLength="300.9795" x="624.8" y="246.1924">+getNumberOfExplanatoryAttributes(): int</text><text fill="#000000" font-family="Verdana" font-size="14" lengthAdjust="spacing" textLength="285.1953" x="624.8" y="263.207">+getAttributeSchema(): List&lt;Attribute&gt;</text><text fill="#000000" font-family="Verdana" font-size="14" lengthAdjust="spacing" textLength="332.9443" x="624.8" y="280.2217">+getExplanatoryAttribute(index: int): Attribute</text><text fill="#000000" font-family="Verdana" font-size="14" lengthAdjust="spacing" textLength="412.2207" x="624.8" y="297.2363">+getValue(exampleIndex: int, attributeIndex: int): Object</text><text fill="#000000" font-family="Verdana" font-size="14" lengthAdjust="spacing" textLength="220.7598" x="624.8" y="314.251">+getItemSet(index: int): Tuple</text><text fill="#000000" font-family="Verdana" font-size="14" lengthAdjust="spacing" textLength="134.4355" x="624.8" y="331.2656">+toString(): String</text><text fill="#000000" font-family="Verdana" font-size="14" lengthAdjust="spacing" textLength="241.2881" x="624.8" y="348.2803">-parseCSV(filename: String): void</text><text fill="#000000" font-family="Verdana" font-size="14" lengthAdjust="spacing" textLength="362.3115" x="624.8" y="365.2949">-inferAttributeType(name, index, values): Attribute</text></g><!--class EmptyDatasetException--><g class="entity" data-entity="EmptyDatasetException" data-source-line="91" data-uid="ent0011" id="entity_EmptyDatasetException"><rect fill="#FFFFFF" height="53.9526" rx="2.5" ry="2.5" style="stroke:#000000;stroke-width:1;" width="159.5864" x="544.12" y="503.81"/><ellipse cx="557.12" cy="522.7863" fill="#DA70D6" rx="9" ry="9" style="stroke:#000000;stroke-width:1;"/><path d="M560.7343,529.2863 L553.0145,529.2863 L553.0145,516.8933 L560.7343,516.8933 L560.7343,519.0515 L555.4633,519.0515 L555.4633,521.7243 L560.2362,521.7243 L560.2362,523.8825 L555.4633,523.8825 L555.4633,527.1281 L560.7343,527.1281 Z " fill="#000000"/><text fill="#000000" font-family="Verdana" font-size="12" font-style="italic" lengthAdjust="spacing" textLength="73.4941" x="598.1661" y="520.8745">&#171;exception&#187;</text><text fill="#000000" font-family="Verdana" font-size="11" lengthAdjust="spacing" textLength="131.5864" x="569.12" y="534.4531">EmptyDatasetException</text><line style="stroke:#000000;stroke-width:1;" x1="545.12" x2="702.7064" y1="541.7626" y2="541.7626"/><line style="stroke:#000000;stroke-width:1;" x1="545.12" x2="702.7064" y1="549.7626" y2="549.7626"/></g><!--class InvalidDataFormatException--><g class="entity" data-entity="InvalidDataFormatException" data-source-line="92" data-uid="ent0012" id="entity_InvalidDataFormatException"><rect fill="#FFFFFF" height="53.9526" rx="2.5" ry="2.5" style="stroke:#000000;stroke-width:1;" width="184.5459" x="738.64" y="503.81"/><ellipse cx="751.64" cy="522.7863" fill="#DA70D6" rx="9" ry="9" style="stroke:#000000;stroke-width:1;"/><path d="M755.2543,529.2863 L747.5345,529.2863 L747.5345,516.8933 L755.2543,516.8933 L755.2543,519.0515 L749.9833,519.0515 L749.9833,521.7243 L754.7562,521.7243 L754.7562,523.8825 L749.9833,523.8825 L749.9833,527.1281 L755.2543,527.1281 Z " fill="#000000"/><text fill="#000000" font-family="Verdana" font-size="12" font-style="italic" lengthAdjust="spacing" textLength="73.4941" x="805.1659" y="520.8745">&#171;exception&#187;</text><text fill="#000000" font-family="Verdana" font-size="11" lengthAdjust="spacing" textLength="156.5459" x="763.64" y="534.4531">InvalidDataFormatException</text><line style="stroke:#000000;stroke-width:1;" x1="739.64" x2="922.1859" y1="541.7626" y2="541.7626"/><line style="stroke:#000000;stroke-width:1;" x1="739.64" x2="922.1859" y1="549.7626" y2="549.7626"/></g><g class="entity" data-entity="GMN25" data-source-line="118" data-uid="ent0026" id="entity_GMN25"><path d="M1530.74,973.79 L1530.74,1031.1879 L1883.0813,1031.1879 L1883.0813,983.79 L1873.0813,973.79 L1530.74,973.79" fill="#FFFFFF" style="stroke:#000000;stroke-width:1;"/><path d="M1873.0813,973.79 L1873.0813,983.79 L1883.0813,983.79 L1873.0813,973.79" fill="#FFFFFF" style="stroke:#000000;stroke-width:1;"/><text fill="#000000" font-family="Verdana" font-size="13" lengthAdjust="spacing" textLength="91.4951" x="1536.74" y="991.8598">&#171;Serializable&#187;</text><text fill="#000000" font-family="Verdana" font-size="13" lengthAdjust="spacing" textLength="219.8638" x="1536.74" y="1007.6591">Classe base astratta per attributi.</text><text fill="#000000" font-family="Verdana" font-size="13" lengthAdjust="spacing" textLength="331.3413" x="1536.74" y="1023.4585">Sottoclassi: DiscreteAttribute, ContinuousAttribute</text></g><g class="entity" data-entity="GMN28" data-source-line="124" data-uid="ent0029" id="entity_GMN28"><path d="M1527.9,734.29 L1527.9,766.89 L1400.18,770.89 L1527.9,774.89 L1527.9,807.4873 A0,0 0 0 0 1527.9,807.4873 L1853.9176,807.4873 A0,0 0 0 0 1853.9176,807.4873 L1853.9176,744.29 L1843.9176,734.29 L1527.9,734.29 A0,0 0 0 0 1527.9,734.29" fill="#FFFFFF" style="stroke:#000000;stroke-width:1;"/><path d="M1843.9176,734.29 L1843.9176,744.29 L1853.9176,744.29 L1843.9176,734.29" fill="#FFFFFF" style="stroke:#000000;stroke-width:1;"/><text fill="#000000" font-family="Verdana" font-size="13" lengthAdjust="spacing" textLength="91.4951" x="1533.9" y="752.3598">&#171;Serializable&#187;</text><text fill="#000000" font-family="Verdana" font-size="13" lengthAdjust="spacing" textLength="112.2266" x="1533.9" y="768.1591">Metrica distanza:</text><text fill="#000000" font-family="Verdana" font-size="13" lengthAdjust="spacing" textLength="217.915" x="1533.9" y="783.9585">- DiscreteItem: Hamming (0 o 1)</text><text fill="#000000" font-family="Verdana" font-size="13" lengthAdjust="spacing" textLength="305.0176" x="1533.9" y="799.7578">- ContinuousItem: Euclidea normalizzata [0,1]</text></g><g class="entity" data-entity="GMN31" data-source-line="131" data-uid="ent0032" id="entity_GMN31"><path d="M11,470.49 L11,591.0852 A0,0 0 0 0 11,591.0852 L340.8198,591.0852 A0,0 0 0 0 340.8198,591.0852 L340.8198,480.49 L330.8198,470.49 L302.47,470.49 L618.7,314.36 L294.47,470.49 L11,470.49 A0,0 0 0 0 11,470.49" fill="#FFFFFF" style="stroke:#000000;stroke-width:1;"/><path d="M330.8198,470.49 L330.8198,480.49 L340.8198,480.49 L330.8198,470.49" fill="#FFFFFF" style="stroke:#000000;stroke-width:1;"/><text fill="#000000" font-family="Verdana" font-size="13" lengthAdjust="spacing" textLength="91.4951" x="17" y="488.5598">&#171;Serializable&#187;</text><text fill="#000000" font-family="Verdana" font-size="13" lengthAdjust="spacing" textLength="165.1279" x="17" y="504.3591">Supporta 3 sorgenti dati:</text><text fill="#000000" font-family="Verdana" font-size="13" lengthAdjust="spacing" textLength="226.2749" x="17" y="520.1585">1. Hardcoded (PlayTennis dataset)</text><text fill="#000000" font-family="Verdana" font-size="13" lengthAdjust="spacing" textLength="121.126" x="17" y="535.9578">2. CSV file parsing</text><text fill="#000000" font-family="Verdana" font-size="13" lengthAdjust="spacing" textLength="178.6104" x="17" y="551.7571">3. MySQL Database (JDBC)</text><text fill="#000000" font-family="Verdana" font-size="13" lengthAdjust="spacing" textLength="4.5703" x="17" y="567.5564">&#160;</text><text fill="#000000" font-family="Verdana" font-size="13" lengthAdjust="spacing" textLength="308.8198" x="17" y="583.3557">Inferisce automaticamente tipi attributi da CSV</text></g><g class="entity" data-entity="GMN34" data-source-line="141" data-uid="ent0035" id="entity_GMN34"><path d="M1527.89,181.42 L1527.89,238.8179 L1807.9379,238.8179 L1807.9379,191.42 L1797.9379,181.42 L1527.89,181.42" fill="#FFFFFF" style="stroke:#000000;stroke-width:1;"/><path d="M1797.9379,181.42 L1797.9379,191.42 L1807.9379,191.42 L1797.9379,181.42" fill="#FFFFFF" style="stroke:#000000;stroke-width:1;"/><text fill="#000000" font-family="Verdana" font-size="13" lengthAdjust="spacing" textLength="91.4951" x="1533.89" y="199.4898">&#171;Serializable&#187;</text><text fill="#000000" font-family="Verdana" font-size="13" lengthAdjust="spacing" textLength="222.1934" x="1533.89" y="215.2891">Rappresenta una riga del dataset.</text><text fill="#000000" font-family="Verdana" font-size="13" lengthAdjust="spacing" textLength="259.0479" x="1533.89" y="231.0885">Calcola distanze usando metriche Item.</text></g><!--reverse link Attribute to DiscreteAttribute--><g class="link" data-entity-1="Attribute" data-entity-2="DiscreteAttribute" data-source-line="95" data-uid="lnk13" id="link_Attribute_DiscreteAttribute"><path codeLine="95" d="M1033.6035,1089.6083 C1055.3635,1114.6983 1067.59,1128.79 1087.96,1152.27" fill="none" id="Attribute-backto-DiscreteAttribute" style="stroke:#000000;stroke-width:1;"/><polygon fill="none" points="1021.81,1076.01,1029.0707,1093.5395,1038.1363,1085.6771,1021.81,1076.01" style="stroke:#000000;stroke-width:1;"/></g><!--reverse link Attribute to ContinuousAttribute--><g class="link" data-entity-1="Attribute" data-entity-2="ContinuousAttribute" data-source-line="96" data-uid="lnk14" id="link_Attribute_ContinuousAttribute"><path codeLine="96" d="M840.7537,1086.3464 C804.9837,1111.4364 780.23,1128.79 746.75,1152.27" fill="none" id="Attribute-backto-ContinuousAttribute" style="stroke:#000000;stroke-width:1;"/><polygon fill="none" points="855.49,1076.01,837.3082,1081.4343,844.1992,1091.2585,855.49,1076.01" style="stroke:#000000;stroke-width:1;"/></g><!--reverse link Item to DiscreteItem--><g class="link" data-entity-1="Item" data-entity-2="DiscreteItem" data-source-line="98" data-uid="lnk15" id="link_Item_DiscreteItem"><path codeLine="98" d="M1274.1518,870.1397 C1284.9118,907.5797 1292.22,933 1300.85,963" fill="none" id="Item-backto-DiscreteItem" style="stroke:#000000;stroke-width:1;"/><polygon fill="none" points="1269.18,852.84,1268.3852,871.797,1279.9184,868.4825,1269.18,852.84" style="stroke:#000000;stroke-width:1;"/></g><!--reverse link Item to ContinuousItem--><g class="link" data-entity-1="Item" data-entity-2="ContinuousItem" data-source-line="99" data-uid="lnk16" id="link_Item_ContinuousItem"><path codeLine="99" d="M1074.6555,831.0143 C952.4555,873.2043 801.65,925.27 692.26,963.04" fill="none" id="Item-backto-ContinuousItem" style="stroke:#000000;stroke-width:1;"/><polygon fill="none" points="1091.67,825.14,1072.6974,825.3428,1076.6136,836.6858,1091.67,825.14" style="stroke:#000000;stroke-width:1;"/></g><!--reverse link Item to Attribute--><g class="link" data-entity-1="Item" data-entity-2="Attribute" data-source-line="102" data-uid="lnk17" id="link_Item_Attribute"><path codeLine="102" d="M1135.3507,860.3378 C1104.2107,885.2578 1079.51,905.01 1049.15,929.3" fill="none" id="Item-backto-Attribute" style="stroke:#000000;stroke-width:1;"/><polygon fill="none" points="1144.72,852.84,1137.5361,853.4658,1135.3507,860.3378,1142.5346,859.712,1144.72,852.84" style="stroke:#000000;stroke-width:1;"/><text fill="#000000" font-family="Verdana" font-size="13" lengthAdjust="spacing" textLength="56.3608" x="1103.41" y="896.5098">attribute</text></g><!--reverse link Tuple to Item--><g class="link" data-entity-1="Tuple" data-entity-2="Item" data-source-line="104" data-uid="lnk18" id="link_Tuple_Item"><path codeLine="104" d="M1245.91,624.73 C1245.91,649.4 1245.91,664.52 1245.91,689.17" fill="none" id="Tuple-backto-Item" style="stroke:#000000;stroke-width:1;"/><polygon fill="#000000" points="1245.91,612.73,1241.91,618.73,1245.91,624.73,1249.91,618.73,1245.91,612.73" style="stroke:#000000;stroke-width:1;"/><text fill="#000000" font-family="Verdana" font-size="13" lengthAdjust="spacing" textLength="44.5669" x="1246.91" y="656.4098">tuple[]</text><text fill="#000000" font-family="Verdana" font-size="13" lengthAdjust="spacing" textLength="8.2266" x="1237.5278" y="678.4964">n</text></g><!--reverse link Data to Attribute--><g class="link" data-entity-1="Data" data-entity-2="Attribute" data-source-line="105" data-uid="lnk19" id="link_Data_Attribute"><path codeLine="105" d="M920.3595,383.7645 C930.4995,408.8345 934.87,423.76 940.91,449.24 C980.78,617.49 973.43,822.59 965.59,929.24" fill="none" id="Data-backto-Attribute" style="stroke:#000000;stroke-width:1;"/><polygon fill="#000000" points="915.86,372.64,914.4016,379.7021,920.3595,383.7645,921.8179,376.7024,915.86,372.64" style="stroke:#000000;stroke-width:1;"/><text fill="#000000" font-family="Verdana" font-size="13" lengthAdjust="spacing" textLength="98.9536" x="969.88" y="656.4098">explanatorySet</text><text fill="#000000" font-family="Verdana" font-size="13" lengthAdjust="spacing" textLength="8.2266" x="957.8955" y="918.5222">n</text></g><!--link Data to Tuple--><g class="link" data-entity-1="Data" data-entity-2="Tuple" data-source-line="108" data-uid="lnk20" id="link_Data_Tuple"><path codeLine="108" d="M1041.15,372.56 C1075.59,399 1105.171,421.726 1135.621,445.106" fill="none" id="Data-to-Tuple" style="stroke:#000000;stroke-width:1;stroke-dasharray:7,7;"/><polygon fill="#000000" points="1140.38,448.76,1135.6775,440.1063,1136.4142,445.715,1130.8055,446.4516,1140.38,448.76" style="stroke:#000000;stroke-width:1;"/><text fill="#000000" font-family="Verdana" font-size="13" lengthAdjust="spacing" textLength="64.27" x="1100.83" y="416.3098">&#171;creates&#187;</text></g><!--link Data to EmptyDatasetException--><g class="link" data-entity-1="Data" data-entity-2="EmptyDatasetException" data-source-line="109" data-uid="lnk21" id="link_Data_EmptyDatasetException"><path codeLine="109" d="M726.2,372.32 C693.11,423.27 663.4487,468.9286 644.2187,498.5286" fill="none" id="Data-to-EmptyDatasetException" style="stroke:#000000;stroke-width:1;stroke-dasharray:7,7;"/><polygon fill="#000000" points="640.95,503.56,649.2074,498.192,643.6739,499.3671,642.4988,493.8337,640.95,503.56" style="stroke:#000000;stroke-width:1;"/><text fill="#000000" font-family="Verdana" font-size="13" lengthAdjust="spacing" textLength="60.9565" x="703.78" y="416.3098">&#171;throws&#187;</text></g><!--link Data to InvalidDataFormatException--><g class="link" data-entity-1="Data" data-entity-2="InvalidDataFormatException" data-source-line="110" data-uid="lnk22" id="link_Data_InvalidDataFormatException"><path codeLine="110" d="M830.91,372.32 C830.91,423.27 830.91,467.96 830.91,497.56" fill="none" id="Data-to-InvalidDataFormatException" style="stroke:#000000;stroke-width:1;stroke-dasharray:7,7;"/><polygon fill="#000000" points="830.91,503.56,834.91,494.56,830.91,498.56,826.91,494.56,830.91,503.56" style="stroke:#000000;stroke-width:1;"/><text fill="#000000" font-family="Verdana" font-size="13" lengthAdjust="spacing" textLength="60.9565" x="831.91" y="416.3098">&#171;throws&#187;</text></g><!--link DiscreteItem to DiscreteAttribute--><g class="link" data-entity-1="DiscreteItem" data-entity-2="DiscreteAttribute" data-source-line="112" data-uid="lnk23" id="link_DiscreteItem_DiscreteAttribute"><path codeLine="112" d="M1278.81,1041.87 C1251.92,1073.05 1217.5687,1112.8765 1187.3987,1147.8565" fill="none" id="DiscreteItem-to-DiscreteAttribute" style="stroke:#000000;stroke-width:1;stroke-dasharray:7,7;"/><polygon fill="#000000" points="1183.48,1152.4,1192.3871,1148.1972,1186.7456,1148.6137,1186.3291,1142.9722,1183.48,1152.4" style="stroke:#000000;stroke-width:1;"/><text fill="#000000" font-family="Verdana" font-size="13" lengthAdjust="spacing" textLength="46.2744" x="1219.63" y="1119.5998">&#171;uses&#187;</text></g><!--link ContinuousItem to ContinuousAttribute--><g class="link" data-entity-1="ContinuousItem" data-entity-2="ContinuousAttribute" data-source-line="113" data-uid="lnk24" id="link_ContinuousItem_ContinuousAttribute"><path codeLine="113" d="M597.27,1041.87 C610.56,1073.05 627.1273,1111.9005 642.0373,1146.8805" fill="none" id="ContinuousItem-to-ContinuousAttribute" style="stroke:#000000;stroke-width:1;stroke-dasharray:7,7;"/><polygon fill="#000000" points="644.39,1152.4,644.5407,1142.5523,642.4295,1147.8004,637.1813,1145.6892,644.39,1152.4" style="stroke:#000000;stroke-width:1;"/><text fill="#000000" font-family="Verdana" font-size="13" lengthAdjust="spacing" textLength="46.2744" x="630.62" y="1119.5998">&#171;uses&#187;</text></g><!--link Attribute to GMN25--><g class="link" data-entity-1="Attribute" data-entity-2="GMN25" data-source-line="118" data-uid="lnk27" id="link_Attribute_GMN25"><path d="M1049.47,929.14 C1073.74,913.48 1100.91,899.18 1128.41,890.94 C1284.24,844.27 1336.47,852.01 1494.41,890.94 C1558.73,906.8 1625.13,945.99 1666.21,973.41" fill="none" id="Attribute-GMN25" style="stroke:#000000;stroke-width:1;stroke-dasharray:7,7;"/></g><!--link GMN34 to Tuple--><g class="link" data-entity-1="GMN34" data-entity-2="Tuple" data-source-line="141" data-uid="lnk36" id="link_GMN34_Tuple"><path d="M1644.77,239.27 C1615.92,273.3 1564.02,331.11 1511.91,372.24 C1477.05,399.75 1436.93,425.94 1398.59,448.79" fill="none" id="GMN34-Tuple" style="stroke:#000000;stroke-width:1;stroke-dasharray:7,7;"/></g><!--SRC=[ZLPBSzis4BxhLw2vbAfbrMvk7DKpZYHFrN6SDlBaul418jSq4XBWWA1ZASr_xov8a015U-o3RUtpsmU-rI_c4GfWPSw5d5JVX2ovvWLBSbvLbyPeiQiDR18bj-80x6neSgMaiPhpSqzLykGRps1hzZam3OdXCijXCcdbBEM6inyJndvbVz8FMr8imJxm2fZBAXeTMl5TPJHFJ9EoCm0RWh5J9da1CTkYM6QjICWKdcFyOnh1gVrpqZj7ljFCiv-sbXcO6pI9fa5aAz-GCIbS-1DcL6CKcF-SuAy6z4fKYGO3n-2VU5v3XLvW5etdHGZvoDL2Ro7FMl-xUnztNUn0Vtf0JoDaOhvOan2mCA2vKPgac_P_Bxy7VOap5h9MTNKClk3Oj5JLEnnlAn4obBWoHiA4XQ3dZ09wXMmJdaDguKTFBkpKYszX3hO8gobUsXshS-2vmn7tQ-4F9MQVTbznUyCwA4GqvZeBlRmo-eAdmrHMtnGu3VAzi5Aa-E6A-ibId32N2KIyIpliJhX_NWDE0g4jAJvUDbkL0-1gUdFQVkX1ub3SfXvPa3RvgfdxsvExZRYjIsGWjmiDf4RcTi3G9_i2YhlxSD3MCAgGtOQyS0qoCu_XUq9n91h39bmhvsaQ9Oq4DzqPF2cHzeuhLv7QVOsRlDFW4M6Ofwop8lh4fk3l6TPKL_Xw8LrP8P78HXh8G5-ys1Ko7JHbvHYPUjB4lyPqY_KpBn3DXIFQbbXQSUKHB8DdF2AIQ6IFA5h_Rf93JiCKqTJ_a5HFLo87dvK3VRh3adUNIG9LDME6OrqtBzaUQMViGQk2T3iyCJ7RAPK3bzCGbCUShi2Z6VS6NRLTZSVMdMgRu9dbf1zhYxKTYnXvP-aLve06xQOpdlNSjl4Z1Fn2XmotSakBwnlP_NkTWqxnnEiAbjilqSDmQDvoqnb-0DtXljsNeyThK5kmh6kS-44eAGORkovAiwU9LjIw14g3HconOD5wfdJoAD8fhgIJNrnqZXk9IOLzBrTA5_njtXwYpv3p1j4QtvqmN0lm7bH_91V_dPuU4-gnoGZnKJxBc46CbbPwHSYZuo2NgYWLiXX-WDyliqn3PZKzBzfu2iFrkE9-WIXgmvc_eSax-QwnZnlgjAHfsSDf_I0X9upZMuaIS1daeM-XZJUVNxHvOnmCri_nXTavTkhn7I1pywZLzu7rAuCFNCZ7lvRaU_prZLpggaKqE7FaCVQjoVF17NUjk56eMbTbBX9kn9ERYoIn5jcZOUeXU1-BnHQqm5eEn7CD05fjOCHkZDEN0uD5bw2xCOevMcsLCSg-0Z5wwSSM4MV32Cfa0AZTnH4i7m5z4zxUwGEF9yG4VajZzXSlyEjUng8pfjZvr5g4JOpPkavmNC0nFKuBCnneadTdi_Fx8QeT5LOGB9hkEAnjNPPAOuJth58w0qn6bquGlFCv8j9feb98MVHFplUt8AMex2d4vIA0VymPyXqZlhFirt3X-pdxkD_-UytSSM7HtwiFowbzm4H-M3QEf4Puc2j1xiFhp8meHJyQp4AXXqKPLL95Zev7IlhCor93XI4vgoMduM3R8NUmQUPBdYSgxwO1hAwuJ1Khx9GUmGvotkV-7m00]--></g></svg>